<svg xmlns="http://www.w3.org/2000/svg" width="15" height="20" fill="none"><path fill="#111" fill-rule="evenodd" d="M.557 4.644v14.175c0 .655.712 1.181 1.593 1.181h10.7c.884 0 1.593-.526 1.593-1.18V4.643H.557Zm3.437 2.953h.197c.311 0 .564.317.564.709v8.032c0 .394-.25.709-.564.709h-.197c-.31 0-.564-.317-.564-.709V8.306c0-.392.253-.709.564-.709Zm3.407 0H7.6c.31 0 .563.317.563.709v8.032c0 .394-.25.709-.563.709H7.4c-.31 0-.563-.317-.563-.709V8.306c.002-.392.253-.709.563-.709Zm3.408 0h.197c.31 0 .563.317.563.709v8.032c0 .394-.25.709-.563.709h-.197c-.311 0-.564-.317-.564-.709V8.306c.002-.392.253-.709.564-.709ZM5.557 0c-.672 0-1.215.584-1.215 1.303v.615H1.445C.647 1.918 0 2.295 0 2.761v1.07h15v-1.07c0-.464-.647-.841-1.445-.841H10.66v-.617C10.66.582 10.115 0 9.445 0H5.557Zm.471.994H8.97c.258 0 .467.224.467.5v.424H5.562v-.425c.002-.275.209-.499.466-.499Z" clip-rule="evenodd"/></svg>